<svg width="28" height="28" viewBox="0 0 28 28" fill="none" xmlns="http://www.w3.org/2000/svg">
<path d="M20.1666 19.875V18.4583C20.1666 17.7069 19.8681 16.9862 19.3368 16.4549C18.8054 15.9235 18.0848 15.625 17.3333 15.625H11.6666C10.9152 15.625 10.1945 15.9235 9.66318 16.4549C9.13182 16.9862 8.83331 17.7069 8.83331 18.4583V19.875" stroke="black" stroke-linecap="round" stroke-linejoin="round"/>
<path d="M14.5 12.7917C16.0648 12.7917 17.3334 11.5231 17.3334 9.95833C17.3334 8.39353 16.0648 7.125 14.5 7.125C12.9352 7.125 11.6667 8.39353 11.6667 9.95833C11.6667 11.5231 12.9352 12.7917 14.5 12.7917Z" stroke="black" stroke-linecap="round" stroke-linejoin="round"/>
<circle cx="14" cy="14" r="13.5" stroke="black"/>
</svg>
